<svg xmlns="http://www.w3.org/2000/svg" xmlns:xlink="http://www.w3.org/1999/xlink" viewBox="0 0 15 13">
  <defs>
    <rect id="path-1" x="0" y="0" width="15" height="13" rx="2"/>
    <path d="M2.564 0h9.872c.892 0 1.215.093 1.54.267.327.174.583.43.757.756.174.326.267.65.267 1.54v7.873c0 .892-.093 1.215-.267 1.54a1.81 1.81 0 01-.756.757c-.326.174-.65.267-1.54.267H2.563c-.892 0-1.215-.093-1.54-.267a1.817 1.817 0 01-.757-.756C.093 11.65 0 11.327 0 10.437V2.563c0-.892.093-1.215.267-1.54a1.81 1.81 0 01.756-.757C1.35.093 1.673 0 2.563 0z" id="path-3"/>
  </defs>
  <g id="Components" stroke="none" stroke-width="1" fill="none" fill-rule="evenodd">
    <g id="Layer-Overview-(Shape/Image)" transform="translate(-10 -41)">
      <g id="Layer-Overview" transform="translate(0 30)">
        <g id="Icon">
          <path d="M5.128 0h25.744c1.783 0 2.43.186 3.082.534.652.349 1.163.86 1.512 1.512.348.652.534 1.299.534 3.082v25.744c0 1.783-.186 2.43-.534 3.082a3.635 3.635 0 01-1.512 1.512c-.652.348-1.299.534-3.082.534H5.128c-1.783 0-2.43-.186-3.082-.534a3.635 3.635 0 01-1.512-1.512C.186 33.302 0 32.655 0 30.872V5.128c0-1.783.186-2.43.534-3.082A3.635 3.635 0 012.046.534C2.698.186 3.345 0 5.128 0z" id="BG" fill="#F0F0F0"/>
          <g id="Template/Sidebar/Layer/Image" opacity=".5" transform="translate(9 9)">
            <g id="Shape" transform="translate(1 2)">
              <mask id="mask-2" fill="#fff">
                <use xlink:href="#path-1"/>
              </mask>
              <path d="M.5 10l3.797-3.797a1.002 1.002 0 011.406 0L9.5 10l1.79-1.79a1.008 1.008 0 011.418-.002L15.5 11v2.15H.5V10z" id="Path-2" stroke="#000" fill-opacity=".35" fill="#000" stroke-linecap="round" stroke-linejoin="round" mask="url(#mask-2)"/>
              <circle id="Oval" stroke="#000" mask="url(#mask-2)" cx="10" cy="4" r="1.5"/>
              <mask id="mask-4" fill="#fff">
                <use xlink:href="#path-3"/>
              </mask>
              <path stroke="#000" d="M2.564.5c-.737 0-1.017.054-1.305.208a1.317 1.317 0 00-.551.551C.554 1.547.5 1.827.5 2.564v7.872c0 .737.054 1.017.208 1.305.128.239.312.423.551.551.288.154.568.208 1.305.208h9.872c.737 0 1.017-.054 1.305-.208.239-.128.423-.312.551-.551.154-.288.208-.568.208-1.305V2.564c0-.737-.054-1.017-.208-1.305a1.317 1.317 0 00-.551-.551C13.453.554 13.173.5 12.436.5H2.564z"/>
            </g>
          </g>
        </g>
      </g>
    </g>
  </g>
</svg>
